PathFileType	4	(X/Y/Z)	 s07c0201.trc
DataRate	CameraRate	NumFrames	NumMarkers	Units	OrigDataRate	OrigDataStartFrame	OrigNumFrames
200	200	7	48	mm	200	751	2000
Frame#	Time	racr			lacr			c7			jug			rlel			rdr			llel			ldr			s2			lic			ric			lasi			rasi			rpsi			lpsi			rgt			lgt			rth1			rth2			rth3			rth4			rlfc			rmfc			rsh1			rsh2			rsh3			rsh4			rlmal			rcal			rtoe			rmt5			lth1			lth2			lth4			lth3			llfc			lmfc			lsh1			lsh2			lsh3			lsh4			llmal			lcal			ltoe			lmt5			SBIKE			LBIKE			RBIKE			
		X1	Y1	Z1	X2	Y2	Z2	X3	Y3	Z3	X4	Y4	Z4	X5	Y5	Z5	X6	Y6	Z6	X7	Y7	Z7	X8	Y8	Z8	X9	Y9	Z9	X10	Y10	Z10	X11	Y11	Z11	X12	Y12	Z12	X13	Y13	Z13	X14	Y14	Z14	X15	Y15	Z15	X16	Y16	Z16	X17	Y17	Z17	X18	Y18	Z18	X19	Y19	Z19	X20	Y20	Z20	X21	Y21	Z21	X22	Y22	Z22	X23	Y23	Z23	X24	Y24	Z24	X25	Y25	Z25	X26	Y26	Z26	X27	Y27	Z27	X28	Y28	Z28	X29	Y29	Z29	X30	Y30	Z30	X31	Y31	Z31	X32	Y32	Z32	X33	Y33	Z33	X34	Y34	Z34	X35	Y35	Z35	X36	Y36	Z36	X37	Y37	Z37	X38	Y38	Z38	X39	Y39	Z39	X40	Y40	Z40	X41	Y41	Z41	X42	Y42	Z42	X43	Y43	Z43	X44	Y44	Z44	X45	Y45	Z45	X46	Y46	Z46	X47	Y47	Z47	X48	Y48	Z48	
751	3.7550	463.618024	1462.577137	-91.336083	443.152532	1437.607732	-364.152363	416.334813	1507.224925	-231.711116	366.600704	1361.984542	-224.734631	493.663521	1142.052772	71.615526	694.448860	952.330232	-48.578570	458.152066	1127.117823	-520.341509	691.949285	950.387640	-436.011756	-134.775417	1206.282823	-224.951573	11.871417	1283.183535	-364.516768	28.642750	1267.588226	-74.910449	51.486204	1212.412885	-340.482819	51.787856	1208.145808	-89.237283	-109.858522	1246.718286	-173.308285	-107.080390	1259.922982	-278.957350	-18.170589	1115.888059	-39.384447	-13.171273	1130.638454	-405.292756	69.941687	981.022126	-33.390035	126.615525	913.791770	-43.505517	144.620911	830.200592	-46.726672	156.550515	929.977260	-59.304216	200.880208	704.438837	-78.176352	184.106304	686.386825	-177.362747	177.680030	563.602555	-47.293040	190.698027	477.299775	-66.764994	162.862888	394.906592	-61.702204	204.180523	479.793634	-105.449602	145.511033	253.337526	-64.495539	86.170929	204.774407	-89.144600	375.073071	221.302142	-121.954838	307.282862	175.919041	-47.441190	93.816659	1072.220915	-405.839723	181.899584	1065.477003	-405.811056	193.995674	1098.614089	-396.610199	255.666339	1015.260126	-402.736819	406.505336	919.009472	-370.017990	395.398943	899.693460	-268.035724	306.434583	808.794084	-388.913904	261.387427	736.493344	-374.470406	183.442975	692.075978	-382.147900	267.260101	733.763503	-332.750413	83.948441	608.729400	-387.987483	8.585410	627.919093	-351.346551	190.863485	402.538715	-351.555196	119.641857	447.083939	-413.698364	-259.530233	977.300046	-229.276158	-75.950418	83.891637	-435.599562	-82.063900	79.378638	-38.017071	
752	3.7600	465.314648	1463.169591	-94.375779	440.701260	1439.155185	-367.084203	415.718136	1508.833973	-233.930469	365.872518	1363.612757	-226.950644	494.531660	1143.489940	71.361322	695.304803	953.357668	-47.345455	456.207106	1127.396454	-520.316605	690.895834	950.746480	-436.261205	-133.649120	1206.716826	-221.617135	10.893060	1285.125601	-361.217170	31.070390	1266.394449	-72.204500	51.849937	1214.659400	-338.137659	53.740455	1206.770547	-86.760517	-108.083536	1246.449167	-169.938005	-106.561260	1260.796253	-275.203601	-17.126743	1114.565531	-37.683007	-12.514854	1134.641888	-404.053874	67.510122	978.271544	-31.072693	122.837655	909.815287	-40.729773	138.995377	825.890505	-43.987935	153.139658	925.280127	-56.755513	193.668185	699.416998	-76.608448	177.389321	681.620250	-175.770496	170.239806	558.672381	-46.028455	183.188449	472.411580	-65.529142	155.214478	390.047978	-60.858692	196.900256	475.045474	-104.106624	137.716373	248.681387	-64.120410	77.938950	201.254304	-89.091405	366.960373	213.399707	-122.008148	298.526553	168.884187	-47.571379	95.305810	1078.528823	-405.131237	183.529922	1073.697194	-405.364848	194.932195	1106.933743	-395.721820	258.445964	1025.057601	-402.892695	411.799994	931.611986	-370.872050	402.150485	912.087385	-268.347747	315.262799	819.399083	-389.420582	270.907597	746.691885	-374.909002	193.557553	701.319270	-382.818968	276.586292	744.416363	-333.134090	95.951187	615.151265	-387.356789	19.117387	635.213765	-351.512151	200.246990	408.528259	-351.548278	128.913218	453.374134	-413.499964	-259.410301	977.398021	-229.043747	-76.105116	83.890855	-435.465000	-82.049745	79.399581	-38.004279	
753	3.7650	466.859855	1463.681948	-97.314954	438.230617	1440.825072	-370.014852	415.128569	1510.424747	-235.983912	365.066587	1365.254780	-229.085263	495.282724	1144.872951	71.138996	696.309636	954.484875	-45.974495	454.444283	1127.616582	-519.799304	689.711503	950.948866	-436.252989	-132.546378	1207.044148	-218.206928	10.008723	1286.987724	-358.041704	33.596144	1265.227691	-69.584255	51.639913	1216.299016	-334.768878	55.696246	1205.557289	-84.364501	-106.524931	1246.265514	-166.431858	-106.039263	1261.613755	-271.538700	-16.018643	1113.294884	-35.959147	-11.760594	1138.386383	-402.695716	65.407617	975.685752	-28.792238	119.377519	906.215607	-38.063100	133.582749	821.993785	-41.179411	149.997984	921.025442	-54.050506	186.893942	694.800361	-75.223127	171.109028	677.480625	-174.429449	163.165656	554.366837	-45.026701	175.886760	468.130011	-64.522389	147.541488	385.816121	-60.045168	189.617406	470.733005	-103.068605	129.456753	244.523820	-63.728452	69.396462	197.942875	-88.917760	358.366727	206.030772	-122.457916	289.624412	162.477653	-47.703906	96.689884	1084.629423	-404.370266	184.985611	1081.613550	-404.735453	195.719512	1114.931403	-394.381897	260.875020	1034.487367	-403.091021	417.261279	944.017735	-370.678288	408.439762	924.095186	-268.425570	323.573245	829.926817	-389.860193	279.956879	756.837702	-375.296353	203.151786	710.499404	-383.322889	285.475134	754.925433	-333.543103	104.760219	621.827485	-389.327301	28.605172	641.602909	-351.763503	210.107252	414.758838	-351.017629	138.770859	459.435116	-413.715737	-259.291580	977.494440	-228.788751	-76.077774	83.963095	-435.375905	-82.043495	79.427442	-37.969366	
754	3.7700	468.303194	1464.138541	-100.218992	435.747147	1442.662023	-372.915557	414.602869	1511.932626	-237.771625	364.352371	1366.800618	-231.038737	495.777983	1146.053781	70.718797	697.474371	955.449238	-44.478635	452.835748	1127.998648	-519.171665	688.484645	950.982081	-435.882373	-131.461359	1207.393949	-215.015565	9.287875	1288.703887	-355.068655	36.057241	1264.019702	-67.072148	52.341298	1218.277174	-332.613114	57.606429	1204.446946	-82.210623	-105.190306	1246.140180	-162.952069	-105.505535	1262.423418	-268.001104	-14.685439	1112.071513	-34.308394	-10.980960	1142.008427	-401.310226	63.640985	973.339131	-26.315899	116.383492	902.815776	-35.379840	128.997323	818.295437	-38.204172	147.146023	917.059658	-51.497176	180.719101	690.825587	-73.907992	165.320062	673.715418	-173.237056	156.342132	550.777015	-44.198641	168.728189	464.555248	-63.818858	139.914921	382.278912	-59.419764	182.434023	467.031919	-102.206210	121.159374	241.012488	-63.518778	60.473538	195.616244	-88.664495	349.897925	199.520876	-122.235496	280.249635	156.768486	-47.731579	97.894498	1090.446691	-403.495825	186.233681	1089.177124	-403.894130	196.327693	1122.468711	-392.759228	262.898481	1043.737822	-403.138034	421.697603	955.878244	-370.892609	414.186445	935.334778	-268.507113	331.301681	840.082788	-390.084381	288.364788	766.540037	-375.692999	212.035332	719.482036	-383.747941	295.384597	764.830719	-331.818387	113.904356	627.577402	-389.846598	37.254812	646.824511	-351.953991	220.140827	420.894405	-350.277513	148.777346	465.077276	-413.347306	-259.139309	977.612103	-228.530316	-76.050243	83.998701	-435.267698	-81.984701	79.417933	-37.968094	
755	3.7750	469.473962	1464.522097	-102.703723	433.550126	1444.953150	-376.861289	414.192313	1513.363365	-239.288697	364.071501	1368.145847	-233.029601	495.982554	1147.037658	70.204308	698.743285	956.312455	-43.084157	451.236745	1128.463023	-518.327515	687.266720	950.945875	-435.312962	-130.158585	1207.585585	-210.564129	8.592807	1290.399605	-352.211619	38.709957	1262.810048	-64.752407	52.725714	1220.000181	-330.246204	59.508383	1203.267556	-80.229023	-104.783805	1246.326573	-159.112253	-105.040072	1263.213894	-264.600966	-13.394309	1110.936193	-32.670961	-10.284233	1145.429479	-399.924729	62.264937	971.267975	-24.320260	113.855733	899.780876	-32.884926	124.922321	815.172343	-35.373695	144.904313	913.334501	-49.147352	175.256999	687.338104	-72.974077	160.177530	670.487834	-172.309369	150.284021	547.646083	-43.628824	161.861287	461.430960	-63.394137	132.525654	379.442714	-59.156059	175.525597	463.865951	-101.763235	112.540417	238.353786	-63.410435	51.474545	193.882811	-88.646794	340.811017	193.488668	-122.239318	270.999747	152.031840	-47.399147	98.851590	1095.980656	-402.490679	187.218698	1096.297633	-402.917997	196.682021	1129.590034	-391.027083	264.752960	1052.270962	-403.034406	425.348158	966.829357	-370.892894	419.172996	945.712928	-268.348299	338.036921	849.448864	-390.008668	295.844851	775.554383	-375.817940	219.809933	727.765957	-384.230672	301.278775	771.545385	-335.538010	122.471671	632.532144	-390.279018	45.193107	650.991538	-352.399110	230.440834	427.176204	-349.882212	159.030958	470.353443	-412.934842	-258.995617	977.699405	-228.226426	-76.003402	84.113703	-435.223210	-81.981915	79.441958	-37.949548	
756	3.7800	470.673130	1464.965683	-105.305368	430.794537	1446.859673	-379.725431	413.812793	1514.723078	-240.657569	363.156443	1369.670947	-234.421218	495.853087	1148.090757	69.703934	699.884984	957.164781	-41.785923	450.118822	1129.227779	-517.598796	686.112976	950.841485	-434.534834	-129.374674	1207.877102	-207.864509	7.890746	1292.049922	-349.433222	41.038646	1261.679570	-62.495799	52.927488	1221.503926	-327.926927	61.207902	1202.402784	-78.337093	-103.929808	1246.337531	-155.714537	-104.645546	1263.965710	-261.382313	-12.074626	1109.969400	-30.945159	-9.661229	1148.592783	-398.467831	61.303746	969.626725	-22.529595	111.825093	897.239843	-30.607885	121.425320	812.505579	-33.012704	143.053688	910.335452	-46.985271	170.815056	684.325542	-72.551039	156.011544	668.023500	-171.681324	144.634412	545.359747	-43.434988	155.338389	459.079365	-63.381268	125.316714	377.237409	-59.037518	168.748311	461.221668	-101.412013	103.843771	236.491945	-63.490911	42.295150	192.974882	-88.567534	331.679006	187.982278	-122.389491	260.395950	147.192256	-48.191456	99.581819	1101.142900	-401.291348	187.843047	1102.896005	-401.885127	196.893749	1136.054362	-389.010839	266.308821	1060.500554	-403.036600	428.330564	976.526994	-370.391778	423.360089	955.137911	-268.205030	343.556080	857.372395	-389.543428	301.885993	783.013448	-375.860464	226.405230	734.555899	-384.599026	306.729283	781.300373	-334.334901	130.505623	636.842352	-390.472294	52.757780	654.100024	-353.097961	241.127726	432.975366	-349.141586	169.528180	474.918471	-412.335175	-258.892657	977.786627	-227.950355	-75.966417	84.235732	-435.221946	-81.972932	79.453941	-37.911478	
757	3.7850	471.784585	1465.407235	-107.752230	427.948352	1448.558069	-382.308804	413.439854	1516.076493	-241.909149	361.992408	1371.288291	-235.559469	496.013704	1148.936413	69.312355	700.817269	957.707799	-40.810476	449.493542	1130.024919	-516.790803	685.217779	950.792066	-433.589479	-128.841090	1208.139383	-204.970183	7.415886	1293.560195	-346.964781	43.148423	1260.686143	-60.339072	52.998104	1222.872401	-325.736921	62.938524	1201.436924	-76.583609	-103.267747	1246.309070	-152.467925	-104.352367	1264.748933	-258.376857	-10.977140	1108.939384	-29.373592	-9.325960	1151.445462	-396.995199	60.672524	968.300635	-20.991540	110.394243	895.222920	-28.638685	118.828835	810.359776	-31.054960	141.618407	908.072678	-44.861892	167.187040	682.110855	-72.284307	152.321851	666.278484	-171.651377	139.682122	543.716602	-43.613090	149.327798	457.393753	-63.559706	118.355802	375.873365	-59.194666	162.688342	459.348745	-101.610207	95.199119	235.389058	-63.657012	32.676806	193.217213	-88.260539	322.315123	183.060397	-122.510249	250.605442	143.739398	-48.240903	100.103478	1105.826079	-399.765240	188.294116	1108.849983	-400.557622	196.940643	1141.972709	-387.099156	267.408086	1066.973186	-402.254238	430.097455	984.807273	-370.168709	425.824533	962.760247	-267.215366	347.737297	864.375482	-389.079402	307.020109	789.698876	-375.776558	232.389851	739.733681	-384.584210	311.989175	787.432763	-334.060754	137.983035	640.027997	-390.600599	59.503924	655.936418	-353.136137	252.009855	438.365027	-348.769726	179.913525	479.031870	-412.135596	-258.873504	977.836368	-227.719771	-75.946952	84.352768	-435.218069	-81.977839	79.468913	-37.882558	
